# xmcd
#
# Track frame offsets:
#	183
#	16630
#	32378
#	49625
#	65345
#	81980
#	97143
#	112973
#	127735
#	142885
#
# Disc length: 2101 seconds
#
# Revision: 4
# Processed by: cddbd v1.5.2PL0 Copyright (c) Steve Scherf et al.
# Submitted via: audiograbber 1.83.01
#
DISCID=7008330a
DTITLE=Blue System - Twilight
DYEAR=1989
DGENRE=Pop
TTITLE0=Magic Symphony
TTITLE1=Love Me On The Rocks
TTITLE2=Save Me
TTITLE3=Nobody Makes Me Crazy (Like You Do)
TTITLE4=Madonna Blue
TTITLE5=Call Me Dr. Love (A New Dimension)
TTITLE6=Little Jeannie
TTITLE7=Carry Me Oh Carrie
TTITLE8=Big Yellow Taxi
TTITLE9=Everything I Own
EXTD=by Diddl
EXTT0=
EXTT1=
EXTT2=
EXTT3=
EXTT4=
EXTT5=
EXTT6=
EXTT7=
EXTT8=
EXTT9=
PLAYORDER=
